<?xml version="1.0" encoding="UTF-8"?><svg id="Capa_1" xmlns="http://www.w3.org/2000/svg" viewBox="0 0 313.95 141.88"><defs><style>.cls-1{fill:#4d4d4d;}.cls-1,.cls-2{stroke-width:0px;}.cls-2{fill:#fff;}</style></defs><rect class="cls-1" x="39.93" y="10.4" width="224.7" height="121.07" rx="60.53" ry="60.53"/><path class="cls-2" d="m131.55,74.99c-.17-.07-6.38-3.14-7.48-3.54-.45-.16-.94-.32-1.45-.32-.84,0-1.55.42-2.09,1.24-.62.93-2.5,3.12-3.08,3.77-.07.09-.18.19-.25.19-.05,0-1.01-.39-1.31-.52-6.67-2.9-11.74-9.86-12.43-11.04-.1-.17-.11-.25-.11-.25.02-.09.25-.31.36-.43.34-.33.7-.78,1.06-1.2.17-.2.34-.41.5-.6.51-.6.75-1.07,1.01-1.6l.14-.28c.65-1.29.1-2.38-.09-2.73-.15-.3-2.77-6.63-3.05-7.29-.67-1.61-1.56-2.36-2.79-2.36-.12,0,0,0-.48.02-.59.02-3.76.45-5.17,1.33-1.49.94-4.01,3.93-4.01,9.21,0,4.74,3.01,9.22,4.31,10.93.03.04.1.13.18.26,4.95,7.23,11.12,12.58,17.37,15.08,6.02,2.41,8.87,2.69,10.49,2.69h0c.68,0,1.23-.05,1.71-.1l.31-.03c2.08-.18,6.65-2.55,7.68-5.45.82-2.27,1.03-4.76.49-5.66-.38-.63-1.02-.94-1.83-1.33Z"/><path class="cls-2" d="m111.84,25.99c-23.1,0-41.88,18.64-41.88,41.57,0,7.42,1.98,14.67,5.74,21.02l-7.19,21.22c-.14.39-.03.83.26,1.13.21.21.5.33.79.33.12,0,.22-.02.33-.05l22.13-7.03c6.05,3.24,12.9,4.95,19.82,4.95,23.09,0,41.88-18.64,41.88-41.56s-18.79-41.57-41.88-41.57Zm0,74.47c-6.51,0-12.83-1.89-18.26-5.45-.18-.12-.39-.18-.61-.18-.12,0-.22.02-.33.05l-11.08,3.53,3.58-10.55c.12-.34.05-.71-.16-1.01-4.14-5.65-6.32-12.31-6.32-19.29,0-18.14,14.88-32.9,33.17-32.9s33.17,14.76,33.17,32.9c.01,18.14-14.87,32.9-33.16,32.9Z"/></svg>